<svg version="1.1" id="Layer_1" xmlns="http://www.w3.org/2000/svg" xmlns:xlink="http://www.w3.org/1999/xlink" x="0px" y="0px" height="512" width="512" viewBox="0 0 42.5 50" fill="#3C1A5B" xml:space="preserve" class="logo">
  <path fill="#3C1A5B" d="M17.32050807568877 2.4999999999999996Q21.650635094610966 0 25.98076211353316 2.4999999999999996L38.97114317029974 10Q43.30127018922193 12.5 43.30127018922193 17.5L43.30127018922193 32.5Q43.30127018922193 37.5 38.97114317029974 40L25.98076211353316 47.5Q21.650635094610966 50 17.32050807568877 47.5L4.330127018922194 40Q0 37.5 0 32.5L0 17.5Q0 12.5 4.330127018922194 10Z"></path>
    <rect width="10" height="4" fill="#BD1C5D" stroke="#FFF748" stroke-width="1" x="16.5" y="10"></rect>
    <rect width="10" height="4" fill="#FF4F37" stroke="#FFF748" stroke-width="1" x="21.5" y="14"></rect>
    <rect width="10" height="4" fill="#6C7EDB" stroke="#FFF748" stroke-width="1" x="11.5" y="14"></rect>
    <rect width="10" height="4" fill="#bad804" stroke="#FFF748" stroke-width="1" x="16.5" y="18"></rect>
    <rect width="10" height="4" fill="#4FDAFB" stroke="#FFF748" stroke-width="1" x="26.5" y="18"></rect>
    <rect width="10" height="4" fill="#D90224" stroke="#FFF748" stroke-width="1" x="11.5" y="22"></rect>
    <rect width="10" height="4" fill="#acb0cd" stroke="#FFF748" stroke-width="1" x="31.5" y="22"></rect>
    <rect width="10" height="4" fill="#fc23d4" stroke="#FFF748" stroke-width="1" x="6.5" y="26"></rect>
    <rect width="10" height="4" fill="#000c91" stroke="#FFF748" stroke-width="1" x="16.5" y="26"></rect>
    <rect width="10" height="4" fill="red" stroke="#FFF748" stroke-width="1" x="26.5" y="26"></rect>
    <rect width="10" height="4" fill="#0e1412" stroke="#FFF748" stroke-width="1" x="1.5" y="30"></rect>
    <rect width="10" height="4" fill="#fbe473" stroke="#FFF748" stroke-width="1" x="11.5" y="30"></rect>
    <rect width="10" height="4" fill="#796951" stroke="#FFF748" stroke-width="1" x="21.5" y="30"></rect>
    <rect width="10" height="4" fill="#f4a8d5" stroke="#FFF748" stroke-width="1" x="31.5" y="30"></rect>
    <rect width="10" height="4" fill="blue" stroke="#FFF748" stroke-width="1" x="16.5" y="34"></rect>
</svg>